<svg xmlns="http://www.w3.org/2000/svg" viewBox="0 0 256 256" fill="none">
  <rect width="256" height="256" rx="48" fill="#12172E"/>
  <defs>
    <linearGradient id="logo-gradient" x1="52" y1="36" x2="199" y2="204" gradientUnits="userSpaceOnUse">
      <stop stop-color="#31E6F4"/>
      <stop offset="0.52" stop-color="#5B95FF"/>
      <stop offset="1" stop-color="#E350F3"/>
    </linearGradient>
  </defs>

  <path
    d="M83 56H148C185.555 56 216 86.445 216 124C216 153.218 197.565 178.132 171.72 187.701L189.407 210.5H164.135L145.652 186.66L101.312 231.5H82.233L136.901 176.223H150.399C178.897 176.223 202 153.12 202 124.622C202 96.124 178.897 73.021 150.399 73.021H83V56Z"
    fill="url(#logo-gradient)"
  />

  <path
    d="M83 56H150.399C178.897 56 202 79.103 202 107.601C202 136.099 178.897 159.202 150.399 159.202H112"
    stroke="url(#logo-gradient)"
    stroke-width="16"
    stroke-linecap="round"
    stroke-linejoin="round"
  />

  <path
    d="M104 98H140C149.941 98 158 106.059 158 116C158 125.941 149.941 134 140 134H82"
    stroke="url(#logo-gradient)"
    stroke-width="16"
    stroke-linecap="round"
    stroke-linejoin="round"
  />

  <path
    d="M83 56L83 56"
    stroke="url(#logo-gradient)"
    stroke-width="16"
    stroke-linecap="round"
  />

  <path
    d="M83 98L104 98"
    stroke="url(#logo-gradient)"
    stroke-width="16"
    stroke-linecap="round"
  />

  <path
    d="M83 134L120 134"
    stroke="url(#logo-gradient)"
    stroke-width="16"
    stroke-linecap="round"
  />

  <path
    d="M82 185L120 147"
    stroke="url(#logo-gradient)"
    stroke-width="16"
    stroke-linecap="round"
    stroke-linejoin="round"
  />

  <circle cx="83" cy="56" r="14" fill="url(#logo-gradient)"/>
  <circle cx="104" cy="98" r="14" fill="url(#logo-gradient)"/>
  <circle cx="83" cy="134" r="14" fill="url(#logo-gradient)"/>
  <circle cx="82" cy="185" r="14" fill="url(#logo-gradient)"/>
</svg>
